<?xml version="1.0" encoding="utf-8"?>
<!-- Generator: Adobe Illustrator 22.0.0, SVG Export Plug-In . SVG Version: 6.00 Build 0)  -->
<svg version="1.1" id="图层_1" xmlns="http://www.w3.org/2000/svg" xmlns:xlink="http://www.w3.org/1999/xlink" x="0px" y="0px"
	 viewBox="0 0 88 93.9" style="enable-background:new 0 0 88 93.9;" xml:space="preserve">
<style type="text/css">
	.st0{fill:url(#SVGID_1_);}
	.st1{fill:url(#SVGID_2_);}
</style>
<linearGradient id="SVGID_1_" gradientUnits="userSpaceOnUse" x1="23.6475" y1="51.7488" x2="70.6013" y2="51.7488">
	<stop  offset="0" style="stop-color:#E51373;stop-opacity:0.32"/>
	<stop  offset="0.6042" style="stop-color:#A46CE6;stop-opacity:0.9385"/>
	<stop  offset="1" style="stop-color:#9F63E5"/>
</linearGradient>
<path class="st0" d="M70.5,45c0,0,0.7-11.8-11.4-11.8S44.7,54.3,32.7,58.2c0,0-3.8,1.4-9.1,0.2c0,0,8.6,15.4,27.2,11.3
	S71.1,48,70.5,45z"/>
<linearGradient id="SVGID_2_" gradientUnits="userSpaceOnUse" x1="19.875" y1="39.4379" x2="70.5404" y2="39.4379">
	<stop  offset="0" style="stop-color:#009FE8"/>
	<stop  offset="1" style="stop-color:#FFFFFF;stop-opacity:0"/>
</linearGradient>
<path class="st1" d="M70.5,45.1c0,0-2.8-30-30.7-24.8c0,0-13.6,2.2-18.4,16c0,0-4.5,10.8,2.3,22.2c0,0,16.8,5.4,27.7-13.4
	C60.9,28.2,71.3,38.9,70.5,45.1z"/>
</svg>
