<?xml version="1.0" encoding="utf-8"?>
<!-- Generator: Adobe Illustrator 22.0.0, SVG Export Plug-In . SVG Version: 6.00 Build 0)  -->
<svg version="1.1" id="图层_1" xmlns="http://www.w3.org/2000/svg" xmlns:xlink="http://www.w3.org/1999/xlink" x="0px" y="0px"
	 viewBox="0 0 651.6 144.1" style="enable-background:new 0 0 651.6 144.1;" xml:space="preserve">
<style type="text/css">
	.st0{fill:#FFFFFF;}
	.st1{fill:url(#SVGID_1_);}
	.st2{fill:url(#SVGID_2_);}
	.st3{fill:#1A1C3F;}
	.st4{font-family:'DINAlternate-Bold';}
	.st5{font-size:60px;}
</style>
<circle class="st0" cx="66.7" cy="69.9" r="45.7"/>
<linearGradient id="SVGID_1_" gradientUnits="userSpaceOnUse" x1="27.7971" y1="82.0362" x2="112.3721" y2="82.0362">
	<stop  offset="0" style="stop-color:#E51373;stop-opacity:0.32"/>
	<stop  offset="0.6042" style="stop-color:#A46CE6;stop-opacity:0.9385"/>
	<stop  offset="1" style="stop-color:#9F63E5"/>
</linearGradient>
<path class="st1" d="M112.2,69.8c0,0,1.2-21.3-20.5-21.3c-21.7,0-25.9,38-47.6,45.2c0,0-6.8,2.4-16.4,0.3c0,0,15.4,27.7,49,20.3
	S113.3,75.3,112.2,69.8z"/>
<linearGradient id="SVGID_2_" gradientUnits="userSpaceOnUse" x1="21.0018" y1="59.8612" x2="112.2626" y2="59.8612">
	<stop  offset="0" style="stop-color:#009FE8"/>
	<stop  offset="1" style="stop-color:#FFFFFF;stop-opacity:0"/>
</linearGradient>
<path class="st2" d="M112.2,70c0,0-5.1-54-55.3-44.6c0,0-24.6,3.9-33.2,28.9c0,0-8.2,19.5,4.1,40c0,0,30.3,9.8,50-24.2
	C95,39.7,113.6,58.8,112.2,70z"/>
<g>
	<text transform="matrix(1 0 0 1 143.5793 95.4731)" class="st3 st4 st5">OMNI FRAGRANCE</text>
</g>
</svg>
